<?xml version="1.0" encoding="UTF-8"?>
<svg id="Layer_2" data-name="Layer 2" xmlns="http://www.w3.org/2000/svg" viewBox="0 0 55.63 43.11">
  <g id="Capa_1" data-name="Capa 1">
    <path d="M46.87,0H8.76C3.93,0,0,3.93,0,8.76v25.59c0,4.83,3.93,8.76,8.76,8.76H46.87c4.83,0,8.76-3.93,8.76-8.76V8.76c0-4.83-3.93-8.76-8.76-8.76Zm0,1.95c1.32,0,2.56,.39,3.61,1.04L27.53,20.65,5.15,3c1.05-.66,2.29-1.05,3.62-1.05H46.87Zm6.81,32.4c0,3.76-3.06,6.81-6.81,6.81H8.76c-3.76,0-6.81-3.06-6.81-6.81V8.76c0-1.71,.64-3.28,1.69-4.48L26.92,22.64c.18,.14,.39,.21,.6,.21s.42-.07,.59-.2L51.99,4.28c1.05,1.2,1.69,2.76,1.69,4.48v25.59Z"/>
  </g>
</svg>