<?xml version="1.0" encoding="UTF-8"?>
<svg id="Layer_2" data-name="Layer 2" xmlns="http://www.w3.org/2000/svg" viewBox="0 0 49.84 58.4">
  <defs>
    <style>
      .cls-1 {
        fill: #0a0606;
      }
    </style>
  </defs>
  <g id="Capa_1" data-name="Capa 1">
    <g>
      <path class="cls-1" d="M48.84,0H1C.45,0,0,.45,0,1V57.4c0,.55,.45,1,1,1H48.84c.55,0,1-.45,1-1V1c0-.55-.45-1-1-1Zm-1,56.4H2V2H47.84V56.4Z"/>
      <path class="cls-1" d="M24.92,26.65c5.32,0,9.65-4.33,9.65-9.65s-4.33-9.65-9.65-9.65-9.65,4.33-9.65,9.65,4.33,9.65,9.65,9.65Zm0-17.31c4.22,0,7.65,3.43,7.65,7.65s-3.43,7.65-7.65,7.65-7.65-3.43-7.65-7.65,3.43-7.65,7.65-7.65Z"/>
      <path class="cls-1" d="M13.27,36.25h23.58c1.06,0,1.87-.46,1.87-1.06s-.8-1.06-1.87-1.06H13.27c-1.06,0-1.87,.46-1.87,1.06s.8,1.06,1.87,1.06Z"/>
      <path class="cls-1" d="M36.85,46.87H13.27c-1.06,0-1.87,.46-1.87,1.06s.8,1.06,1.87,1.06h23.58c1.06,0,1.87-.46,1.87-1.06s-.8-1.06-1.87-1.06Z"/>
      <path class="cls-1" d="M12.99,42.62h23.77c1.1,0,1.96-.46,1.96-1.06s-.86-1.06-1.96-1.06H12.99c-1.1,0-1.96,.46-1.96,1.06s.86,1.06,1.96,1.06Z"/>
      <path d="M24.52,18.2c.07-.1,.1-.16,.15-.21,1.53-1.54,3.07-3.07,4.6-4.6,.37-.37,.84-.41,1.2-.12,.36,.29,.42,.8,.15,1.16-.05,.07-.12,.14-.18,.2-1.74,1.74-3.47,3.47-5.21,5.21-.47,.47-.94,.47-1.41,0-.88-.88-1.77-1.77-2.65-2.65-.41-.41-.4-.96,0-1.3,.31-.26,.74-.27,1.06-.02,.07,.05,.13,.11,.19,.17,.65,.65,1.3,1.3,1.95,1.95,.05,.05,.08,.11,.15,.21Z"/>
    </g>
  </g>
</svg>