<?xml version="1.0" encoding="UTF-8"?>
<svg id="Layer_2" data-name="Layer 2" xmlns="http://www.w3.org/2000/svg" viewBox="0 0 55.19 56.52">
  <g id="Capa_1" data-name="Capa 1">
    <g>
      <path d="M31.96,23.04V2.89H10.38c-1.44,0-2.62,1.17-2.62,2.62v27.93h14.85c.34,0,.62,.28,.62,.62v13.79h26.87c1.44,0,2.62-1.17,2.62-2.62V23.66h-20.15c-.35,0-.62-.27-.62-.62Zm18.76,22.19c0,.34-.28,.62-.62,.62H25.23v-11.79c0-1.44-1.17-2.62-2.62-2.62H9.76V5.51c0-.34,.28-.62,.62-.62H29.96V23.04c0,1.44,1.17,2.62,2.62,2.62h18.15v19.58Z"/>
      <path d="M19.15,35.75H1.62c-.9,0-1.62,.72-1.62,1.62v17.54c0,.89,.72,1.62,1.62,1.62H19.15c.89,0,1.62-.72,1.62-1.62v-17.54c0-.89-.72-1.62-1.62-1.62Z"/>
      <path d="M53.57,0h-17.53c-.9,0-1.62,.72-1.62,1.62V19.15c0,.89,.72,1.62,1.62,1.62h17.53c.89,0,1.62-.72,1.62-1.62V1.62c0-.89-.72-1.62-1.62-1.62Z"/>
    </g>
  </g>
</svg>