<?xml version="1.0" encoding="UTF-8"?>
<svg id="Layer_2" data-name="Layer 2" xmlns="http://www.w3.org/2000/svg" viewBox="0 0 63.47 31.73">
  <g id="Capa_1" data-name="Capa 1">
    <g>
      <g>
        <path d="M25.45,6.26H1.87c-1.06,0-1.87,.46-1.87,1.06s.8,1.06,1.87,1.06H25.45c1.06,0,1.87-.46,1.87-1.06s-.8-1.06-1.87-1.06Z"/>
        <path d="M25.45,23.36H1.87c-1.06,0-1.87,.46-1.87,1.06s.8,1.06,1.87,1.06H25.45c1.06,0,1.87-.46,1.87-1.06s-.8-1.06-1.87-1.06Z"/>
        <path d="M25.83,14.81H7.82c-.83,0-1.48,.46-1.48,1.06s.65,1.06,1.48,1.06H25.83c.83,0,1.48-.46,1.48-1.06s-.65-1.06-1.48-1.06Z"/>
      </g>
      <path d="M32.74,31.73c-.24,0-.48-.09-.67-.26-.31-.28-.41-.71-.27-1.09l5.44-14.51L31.93,1.34c-.14-.39-.03-.82,.27-1.09,.31-.27,.75-.33,1.11-.15l29.6,14.87c.34,.17,.55,.52,.55,.89s-.21,.72-.55,.89l-29.73,14.86c-.14,.07-.29,.11-.45,.11Zm1.94-28.7l4.57,12.5c.08,.22,.08,.47,0,.69l-4.68,12.47,25.67-12.83L34.67,3.03Z"/>
    </g>
  </g>
</svg>