<?xml version="1.0" encoding="UTF-8"?>
<svg id="Layer_2" data-name="Layer 2" xmlns="http://www.w3.org/2000/svg" viewBox="0 0 4.75 22.24">
  <g id="Capa_1" data-name="Capa 1">
    <g>
      <path d="M.32,4.08c.29,2.92,.73,7.34,.98,10.55,.02,.22,.2,.38,.41,.38h1.23c.22,0,.4-.17,.41-.39,.17-2.59,.52-6.05,.81-8.84,.12-1.22,.23-2.28,.3-3.01,.06-.47,.1-.94,.1-1.3-.02-.55-.34-1.47-2.25-1.47S.09,1.02,.09,1.46c0,.23,.03,.59,.06,.94l.16,1.68Z"/>
      <path d="M2.34,17.37c-1.34,0-2.34,1.05-2.34,2.44s.96,2.44,2.34,2.44,2.4-1.03,2.4-2.44-1.06-2.44-2.4-2.44Z"/>
    </g>
  </g>
</svg>