<?xml version="1.0" encoding="UTF-8"?>
<svg id="Layer_2" data-name="Layer 2" xmlns="http://www.w3.org/2000/svg" viewBox="0 0 82.76 49">
  <defs>
    <style>
      .cls-1 {
        fill: #1d1d1b;
      }
    </style>
  </defs>
  <g id="Capa_1" data-name="Capa 1">
    <path class="cls-1" d="M77.03,25.6c-.84-8.96-8.52-15.97-17.54-15.97-1.56,0-3.12,.21-4.64,.63C51.97,4.02,45.71,0,38.85,0c-5.85,0-11.47,3.04-14.71,7.94-1.23-.38-2.51-.58-3.79-.58-4.81,0-9.28,2.77-11.42,7.07C3.66,16.09,0,21.08,0,26.6c0,7.04,5.73,12.76,12.77,12.76h8.27c1.43,5.69,6.49,9.64,12.38,9.64h36.57c7.04,0,12.77-5.73,12.77-12.77,0-4.3-2.14-8.26-5.73-10.63Zm-56.35,11.49h-7.91c-5.79,0-10.5-4.71-10.5-10.49,0-4.73,3.19-8.89,7.76-10.12,.31-.09,.58-.31,.74-.63,1.69-3.78,5.45-6.22,9.58-6.22,1.31,0,2.61,.25,3.86,.74,.52,.21,1.11,0,1.39-.48,2.75-4.7,7.83-7.61,13.25-7.61,5.9,0,11.31,3.42,13.84,8.75-3.24,1.37-5.97,3.63-7.9,6.56-1.24-.39-2.52-.58-3.79-.58-4.81,0-9.28,2.78-11.42,7.08-5.26,1.66-8.92,6.64-8.92,12.16,0,.29,.01,.57,.03,.86Zm9.99-10.99c.33-.09,.6-.32,.74-.63,1.69-3.78,5.45-6.22,9.58-6.22,1.31,0,2.61,.25,3.86,.74,.51,.21,1.11,0,1.39-.48,1.71-2.91,4.38-5.22,7.53-6.49,.5-.21,1.03-.39,1.64-.56,1.31-.37,2.69-.56,4.08-.56,8.1,0,14.83,6.34,15.33,14.43,.02,.37,.23,.71,.54,.9,3.21,1.92,5.13,5.29,5.13,9,0,5.79-4.71,10.5-10.5,10.5H33.42c-4.7,0-8.86-3.16-10.12-7.69-.15-.52-.25-1.08-.33-1.72-.03-.35-.05-.72-.05-1.09,0-4.73,3.19-8.89,7.75-10.12Z"/>
  </g>
</svg>