<?xml version="1.0" encoding="UTF-8"?>
<svg id="Layer_2" data-name="Layer 2" xmlns="http://www.w3.org/2000/svg" viewBox="0 0 48.24 46.75">
  <g id="Capa_1" data-name="Capa 1">
    <g>
      <rect x="17.87" y="44.75" width="13" height="2"/>
      <rect x="45.74" y="16.87" width="2" height="13"/>
      <rect x="17.87" width="13" height="2"/>
      <rect x="1" y="16.87" width="2" height="13"/>
      <polygon points="46.24 44.75 41.24 44.75 41.24 46.75 48.24 46.75 48.24 39.75 46.24 39.75 46.24 44.75"/>
      <polygon points="2 39.75 0 39.75 0 46.75 7 46.75 7 44.75 2 44.75 2 39.75"/>
      <polygon points="0 7 2 7 2 2 7 2 7 0 0 0 0 7"/>
      <polygon points="41.24 0 41.24 2 46.24 2 46.24 7 48.24 7 48.24 0 41.24 0"/>
      <path d="M13.79,33.96h21.16V12.79H13.79v21.16Zm2-19.16h17.16V31.96H15.79V14.79Z"/>
      <rect x="19.44" y="19.06" width="9.87" height="9.87"/>
    </g>
  </g>
</svg>