<?xml version="1.0" encoding="UTF-8"?>
<svg id="Layer_2" data-name="Layer 2" xmlns="http://www.w3.org/2000/svg" viewBox="0 0 50.66 47.54">
  <g id="Capa_1" data-name="Capa 1">
    <g>
      <path d="M40.41,30.54l9.45-9.75c.72-.74,.97-1.83,.66-2.84h0c-.31-1.01-1.12-1.73-2.11-1.88l-13.06-2.01L29.51,1.54c-.44-.95-1.34-1.54-2.35-1.54s-1.9,.59-2.35,1.54l-5.84,12.52-13.06,2.01c-.99,.15-1.8,.87-2.11,1.88-.31,1.01-.06,2.1,.66,2.84l9.45,9.75-2.23,13.76c-.17,1.05,.23,2.08,1.04,2.71,.45,.35,.98,.53,1.54,.53,.42,0,.85-.11,1.22-.32l11.68-6.5,11.68,6.5c.87,.49,1.96,.41,2.76-.21,.81-.62,1.21-1.66,1.04-2.71l-2.23-13.76Zm.01,14.76c-.19,.15-.44,.17-.65,.05l-12.61-7.01-12.61,7.02c-.2,.11-.46,.09-.65-.05-.19-.15-.28-.4-.25-.64l2.41-14.86L5.86,19.28c-.17-.17-.23-.43-.16-.67,.07-.24,.26-.41,.5-.44l14.1-2.17L26.61,2.48c.1-.22,.32-.36,.55-.36s.45,.14,.55,.36l6.31,13.52,14.1,2.17c.23,.04,.43,.21,.5,.44,.07,.24,.01,.49-.16,.67l-10.2,10.52,2.41,14.86c.04,.24-.06,.49-.24,.64Z"/>
      <path d="M37.13,8.09l2.93,.37,1.37,2.76c.06,.12,.18,.2,.32,.2,.07,0,.15-.03,.2-.08,.04-.04,.08-.08,.1-.14l1.24-2.83,2.91-.52c.13-.02,.24-.12,.27-.26,.04-.13,0-.28-.1-.37l-2.16-2.12,.43-3.09c.02-.14-.04-.28-.15-.36-.11-.08-.25-.09-.37-.02l-2.58,1.52-2.64-1.38c-.12-.06-.26-.05-.37,.04s-.16,.23-.13,.36l.57,3.06-2.06,2.23c-.09,.1-.12,.25-.08,.38,.04,.13,.15,.23,.29,.24Z"/>
      <path d="M7.8,33.46l1.24-2.83c.06-.13,.04-.28-.05-.39-.08-.11-.22-.16-.35-.13l-2.88,.68-2.16-2.12c-.1-.1-.24-.12-.36-.07-.12,.05-.21,.17-.22,.31l-.27,3.11-2.57,1.52c-.12,.07-.18,.2-.18,.34,0,.14,.09,.26,.21,.32l2.71,1.24,.57,3.06c.03,.14,.12,.25,.25,.28,.07,.02,.15,.02,.21-.01,.05-.02,.1-.05,.14-.1l1.95-2.34,2.93,.37c.13,.02,.26-.05,.33-.16,.07-.12,.08-.27,0-.39l-1.5-2.68Z"/>
      <path d="M49.09,33.26l.62-1.89c.03-.08,0-.18-.05-.24-.06-.06-.15-.09-.23-.06l-1.79,.63-1.51-1.21c-.07-.05-.16-.06-.23-.02-.08,.04-.12,.12-.12,.21v2s-1.54,1.14-1.54,1.14c-.07,.05-.11,.14-.09,.23,.01,.09,.07,.16,.15,.19l1.8,.61,.55,1.91c.02,.09,.09,.15,.18,.16,.05,0,.09,0,.14-.02,.03-.02,.06-.04,.08-.07l1.1-1.62,1.89,.04c.08,0,.16-.05,.2-.13,.04-.08,.03-.18-.02-.25l-1.12-1.61Z"/>
      <path d="M14.31,8.97l.35,1.23c.02,.06,.06,.1,.11,.11,.03,0,.06,0,.09-.01,.02-.01,.04-.03,.05-.05l.71-1.05,1.22,.02c.05,0,.1-.03,.13-.08,.03-.05,.02-.11-.01-.16l-.72-1.04,.4-1.22c.02-.05,0-.12-.03-.16-.04-.04-.1-.06-.15-.04l-1.15,.41-.97-.78s-.1-.04-.15-.01c-.05,.03-.08,.08-.08,.14v1.29s-.99,.74-.99,.74c-.04,.03-.07,.09-.06,.15s.05,.1,.1,.12l1.16,.39Z"/>
    </g>
  </g>
</svg>