<?xml version="1.0" encoding="UTF-8"?>
<svg id="Layer_2" data-name="Layer 2" xmlns="http://www.w3.org/2000/svg" viewBox="0 0 49.42 49.42">
  <g id="Capa_1" data-name="Capa 1">
    <g>
      <path d="M36.42,49.42H13c-7.17,0-13-5.83-13-13V13C0,5.83,5.83,0,13,0h23.42c7.17,0,13,5.83,13,13v23.42c0,7.17-5.83,13-13,13ZM13,2C6.93,2,2,6.93,2,13v23.42c0,6.07,4.93,11,11,11h23.42c6.07,0,11-4.93,11-11V13c0-6.07-4.93-11-11-11H13Z"/>
      <g>
        <path d="M22.44,34.4c-.29-.09-.66-.18-1.01-.31-.21-.08-.27-.3-.2-.55,.19-.65,.38-1.31,.56-1.96,1.47-5.08,2.93-10.15,4.4-15.23,.09-.3,.17-.6,.26-.9,.11-.36,.3-.48,.66-.38,.24,.06,.48,.13,.71,.2,.35,.1,.47,.31,.37,.65-.55,1.92-1.11,3.84-1.66,5.76-.85,2.94-1.7,5.87-2.55,8.81-.34,1.17-.67,2.34-1.01,3.5-.08,.28-.23,.42-.53,.41Z"/>
        <path d="M14.32,24.71c.89,.89,1.76,1.76,2.63,2.63,.95,.95,1.89,1.89,2.84,2.83,.3,.3,.3,.5,0,.8-.19,.19-.38,.38-.57,.57-.27,.27-.49,.27-.76,0-1.32-1.32-2.63-2.63-3.95-3.95-.83-.83-1.67-1.67-2.51-2.5-.28-.28-.29-.5,0-.79,2.15-2.16,4.31-4.31,6.46-6.46,.26-.26,.49-.26,.75,0,.19,.19,.38,.38,.58,.57,.3,.29,.3,.51,0,.8-1.34,1.34-2.67,2.67-4.01,4.01-.44,.44-.88,.88-1.32,1.32-.05,.05-.09,.09-.15,.16Z"/>
        <path d="M35.13,24.73c-.44-.44-.84-.84-1.25-1.24-1.42-1.42-2.84-2.84-4.27-4.27-.27-.27-.27-.49,0-.76,.2-.2,.39-.39,.59-.59,.28-.27,.5-.28,.77,0,1.83,1.83,3.65,3.65,5.48,5.48,.33,.33,.67,.66,1,1,.25,.25,.25,.49,0,.74-2.16,2.16-4.32,4.32-6.48,6.48-.27,.27-.49,.27-.76,0-.21-.2-.41-.41-.61-.61-.24-.25-.24-.48,0-.72,1.78-1.78,3.56-3.56,5.34-5.34,.05-.05,.11-.09,.19-.15Z"/>
      </g>
    </g>
  </g>
</svg>